<svg xmlns="http://www.w3.org/2000/svg" viewBox="0 0 100.001 100.001"><path fill="#030104" d="M43.081 66.14c-2.626 13.767-5.833 26.966-15.333 33.861-2.932-20.809 4.307-36.436 7.668-53.027-5.73-9.646.689-29.062 12.777-24.277 14.873 5.885-12.881 35.865 5.75 39.611 19.453 3.908 27.395-33.752 15.332-46-17.428-17.684-50.733-.403-46.637 24.916.996 6.191 7.391 8.068 2.555 16.611-11.154-2.473-14.484-11.27-14.055-23 .69-19.197 17.25-32.639 33.86-34.498 21.006-2.352 40.721 7.711 43.443 27.471 3.066 22.303-9.48 46.459-31.943 44.721-6.088-.473-8.645-3.489-13.417-6.389z"/></svg>