<?xml version="1.0" encoding="utf-8"?>
<!-- Generator: Adobe Illustrator 18.0.0, SVG Export Plug-In . SVG Version: 6.00 Build 0)  -->
<!DOCTYPE svg PUBLIC "-//W3C//DTD SVG 1.1//EN" "http://www.w3.org/Graphics/SVG/1.1/DTD/svg11.dtd">
<svg version="1.1" id="Layer_1" xmlns="http://www.w3.org/2000/svg" xmlns:xlink="http://www.w3.org/1999/xlink" x="0px" y="0px"
	 viewBox="99.7 -0.1 81.6 81.1" enable-background="new 99.7 -0.1 81.6 81.1" xml:space="preserve">
<path fill="#92E4E4" d="M160.4,32.3l4.8-0.3c0,0,0,0,0,0c3.4-0.3,6.5-2.1,8.4-4.9l3.8-5.6c3.3-4.8,4.6-10.7,3.6-16.5
	c-0.2-1.1-0.8-2.2-1.6-2.9c-0.9-0.8-2-1.2-3.1-1.3c-5.9-0.3-11.5,1.7-15.9,5.5l-5.1,4.4c-2.6,2.3-4,5.5-3.9,8.9c0,0,0,0,0,0l0.3,4.8
	c0.1,1.9-0.6,3.7-1.9,5.1l-39.6,40.7c-1.1,1.1-1.6,2.6-1.5,4.3c0.1,1.8,0.9,3.6,2.2,4.8c1.2,1.1,2.8,1.7,4.5,1.7c0.2,0,0.4,0,0.5,0
	c1.6-0.1,3.1-0.9,4.1-2l35.6-44.2C156.7,33.3,158.5,32.4,160.4,32.3z M153.7,33.2L118,77.4c-0.5,0.7-1.4,1.1-2.4,1.2
	c-1.2,0.1-2.3-0.3-3.2-1c-0.8-0.7-1.4-1.9-1.4-3c0-1,0.3-1.9,0.9-2.5l39.6-40.7c1.8-1.8,2.7-4.3,2.6-6.9l-0.3-4.8
	c-0.1-2.7,1-5.2,3-7l5.1-4.4c3.9-3.4,9-5.2,14.2-4.9c0.6,0,1.2,0.3,1.6,0.7c0.4,0.4,0.7,0.9,0.8,1.5c0.9,5.1-0.3,10.4-3.2,14.7
	l-3.8,5.6c-1.5,2.2-3.9,3.6-6.6,3.9l-4.8,0.3C157.7,30,155.3,31.3,153.7,33.2z"/>
<path fill="#92E4E4" d="M179,70l-26.5-24.2c-0.5-0.5-1.3-0.4-1.7,0.1c-0.5,0.5-0.4,1.3,0.1,1.7l26.5,24.2c0.6,0.6,1,1.4,1,2.4
	c0,1.2-0.4,2.3-1.2,3.1c-0.8,0.8-1.9,1.2-3.1,1.2c-1,0-1.8-0.4-2.4-1l-23.6-26c-0.5-0.5-1.2-0.5-1.7-0.1c-0.5,0.5-0.5,1.2-0.1,1.7
	l23.7,26c1,1.1,2.5,1.8,4.2,1.8c0,0,0.1,0,0.1,0c1.8,0,3.5-0.7,4.8-1.9c1.2-1.2,2-3.1,1.9-4.9C180.8,72.5,180.2,71.1,179,70z"/>
<path fill="#92E4E4" d="M114.5,32.1c2,1.9,4.7,2.9,7.4,3c0,0,0,0,0,0l4.8,0c1.9,0,3.7,0.8,4.9,2.2l2.1,2.3c0.2,0.3,0.6,0.4,0.9,0.4
	c0.3,0,0.6-0.1,0.8-0.3c0.5-0.5,0.5-1.2,0.1-1.7l-2.1-2.3c-1.7-1.9-4.2-3-6.7-3l-4.8,0c-2.1-0.1-4.2-0.9-5.7-2.3l-13.9-16.5
	c-0.1-0.2-0.1-0.4,0-0.6c0.1-0.1,0.2-0.1,0.3-0.1s0.2,0,0.3,0.1l12.7,12.7c1.3,1.3,3.3,1.3,4.5,0l1.5-1.5v0l2.6-2.6c0,0,0,0,0,0l0,0
	l1.5-1.5c1.3-1.3,1.3-3.3,0-4.5L113,3.1c-0.2-0.2-0.2-0.4,0-0.6c0.2-0.2,0.4-0.2,0.6,0l16.5,13.9c1.4,1.6,2.2,3.6,2.3,5.7l0,4.8
	c0,2.6,1.1,5,3,6.7l2.3,2.1c0.5,0.5,1.3,0.4,1.7-0.1c0.5-0.5,0.4-1.3-0.1-1.7l-2.3-2.1c-1.4-1.3-2.2-3.1-2.2-4.9l0-4.8c0,0,0,0,0,0
	c-0.1-2.8-1.1-5.4-3-7.4c0,0-0.1-0.1-0.1-0.1l-16.6-14c-1.1-1-2.8-0.9-3.9,0.2c-1.1,1.1-1.1,2.9,0,4.1L124,17.5
	c0.3,0.3,0.3,0.8,0,1.1l-0.6,0.6L109.2,5c-0.5-0.5-1.3-0.5-1.7,0c-0.5,0.5-0.5,1.3,0,1.7l14.1,14.1l-0.9,0.9L106.6,7.7
	c-0.5-0.5-1.3-0.5-1.7,0c-0.5,0.5-0.5,1.3,0,1.7L119,23.5l-0.6,0.6c-0.3,0.3-0.8,0.3-1.1,0l-12.7-12.7c-0.5-0.5-1.3-0.8-2-0.8
	s-1.5,0.3-2,0.8c-1.1,1.1-1.1,2.7-0.2,3.9l14,16.6C114.4,32,114.4,32,114.5,32.1z"/>
</svg>
